<svg width="32" height="32" viewBox="0 0 32 32" fill="none" xmlns="http://www.w3.org/2000/svg">
<path fill-rule="evenodd" clip-rule="evenodd" d="M16.0131 32C13.7227 32.0037 11.4582 31.5148 9.373 30.5664C7.28781 29.6181 5.43051 28.2324 3.92697 26.5032C2.42343 24.774 1.30871 22.7417 0.658249 20.5439C0.00779089 18.346 -0.163195 16.034 0.156857 13.7642C0.476909 11.4945 1.2806 9.32007 2.51338 7.3882C3.74617 5.45632 5.37926 3.81207 7.30222 2.56682C9.22518 1.32158 11.3932 0.504406 13.6591 0.170584C15.9251 -0.163238 18.2362 -0.00590178 20.4361 0.631969L18.9973 3.01596C16.3038 2.39639 13.4845 2.6305 10.9299 3.68584C8.37521 4.74118 6.21159 6.5655 4.73899 8.9061C3.26639 11.2467 2.55765 13.9877 2.71082 16.7494C2.86398 19.5111 3.87156 22.1568 5.59394 24.3199C7.31632 26.4831 9.66827 28.0565 12.3239 28.8224C14.9796 29.5884 17.8075 29.5088 20.416 28.5947C23.0244 27.6806 25.2844 25.9773 26.8825 23.7207C28.4807 21.4641 29.338 18.7659 29.3358 16C29.3359 14.4753 29.07 12.9624 28.5498 11.5293L30.2418 8.71864C31.4903 11.1569 32.0918 13.8753 31.9887 16.6132C31.8855 19.351 31.0811 22.0164 29.6526 24.3536C28.2242 26.6909 26.2197 28.6216 23.8312 29.9605C21.4428 31.2995 18.7507 32.0017 16.0131 32ZM17.2388 20.492C17.1785 20.67 17.0781 20.832 16.9456 20.9653C16.8215 21.0907 16.671 21.1868 16.505 21.2466C16.3391 21.3063 16.1619 21.3282 15.9864 21.3106C15.7094 21.33 15.4342 21.2539 15.2064 21.095C14.9786 20.9362 14.8119 20.7041 14.7341 20.4373L9.64476 15.3467C9.44196 15.1179 9.33403 14.8203 9.34308 14.5147C9.35213 14.209 9.47757 13.9183 9.69355 13.702C9.90952 13.4857 10.1998 13.36 10.5052 13.3507C10.8107 13.3414 11.1081 13.4492 11.3368 13.652L15.6667 17.9866L25.5122 3.35463C25.5975 3.19839 25.7133 3.06084 25.8526 2.95008C25.9919 2.83933 26.1519 2.75762 26.3232 2.70977C26.4946 2.66192 26.6739 2.64893 26.8503 2.67152C27.0268 2.69411 27.1969 2.75185 27.3507 2.84132C27.6601 3.03234 27.8831 3.33628 27.9726 3.68885C28.0621 4.04143 28.0111 4.41502 27.8303 4.73064L17.2388 20.492Z" fill="#3267FF"/>
</svg>
