<svg width="128" height="128" viewBox="0 0 128 128" fill="none" xmlns="http://www.w3.org/2000/svg">
<path d="M64 0C28.6537 0 0 28.6537 0 64C0 99.3463 28.6537 128 64 128C99.3463 128 128 99.3463 128 64C128 28.6537 99.3463 0 64 0ZM64 12.3871C92.5244 12.3871 115.613 35.4712 115.613 64C115.613 92.5244 92.5288 115.613 64 115.613C35.4756 115.613 12.3871 92.5288 12.3871 64C12.3871 35.4756 35.4712 12.3871 64 12.3871ZM100.182 46.0044L94.3659 40.1417C93.1615 38.9275 91.2008 38.9195 89.9866 40.1241L53.5086 76.3089L38.0784 60.7535C36.8741 59.5394 34.9133 59.5314 33.6991 60.7357L27.8361 66.5515C26.6219 67.7559 26.6139 69.7166 27.8186 70.9311L51.2459 94.5481C52.4503 95.7623 54.4111 95.7703 55.6253 94.5657L100.164 50.384C101.378 49.1794 101.386 47.2186 100.182 46.0044Z" fill="#5CAC6D"/>
</svg>
