<svg width="24" height="24" viewBox="0 0 24 24" fill="none" xmlns="http://www.w3.org/2000/svg">
<g clip-path="url(#clip0_131_2134)">
<path fill-rule="evenodd" clip-rule="evenodd" d="M19.8751 21.6H4.12581C3.27814 21.6 2.65218 20.7636 2.9719 19.9944C4.45532 16.4376 7.94032 14.4 11.9998 14.4C16.0605 14.4 19.5455 16.4376 21.029 19.9944C21.3487 20.7636 20.7227 21.6 19.8751 21.6ZM7.1 7.19998C7.1 4.55278 9.29879 2.39998 11.9998 2.39998C14.7021 2.39998 16.8996 4.55278 16.8996 7.19998C16.8996 9.84718 14.7021 12 11.9998 12C9.29879 12 7.1 9.84718 7.1 7.19998ZM23.9468 21.1632C23.0563 17.1324 20.2707 14.1575 16.6044 12.8075C18.5472 11.2751 19.6803 8.79712 19.2638 6.08392C18.7812 2.93632 16.1083 0.417572 12.8818 0.0503722C8.42786 -0.457228 4.65009 2.93878 4.65009 7.19998C4.65009 9.46798 5.72315 11.4887 7.39644 12.8075C3.72892 14.1575 0.944596 17.1324 0.0528288 21.1632C-0.270559 22.6284 0.934798 24 2.46477 24H21.5349C23.0661 24 24.2714 22.6284 23.9468 21.1632Z" fill="#2C4D6D"/>
</g>
<defs>
<clipPath id="clip0_131_2134">
<rect width="24" height="24" fill="white"/>
</clipPath>
</defs>
</svg>
