<svg width="32" height="32" viewBox="0 0 32 32" fill="none" xmlns="http://www.w3.org/2000/svg">
<path fill-rule="evenodd" clip-rule="evenodd" d="M2.6665 16C2.6665 8.6362 8.63604 2.66667 15.9998 2.66667C23.3636 2.66667 29.3332 8.6362 29.3332 16C29.3332 23.3637 23.3636 29.3333 15.9998 29.3333C8.63604 29.3333 2.6665 23.3637 2.6665 16ZM15.9997 8C13.0542 8 10.6664 10.3878 10.6664 13.3333C10.6664 16.2788 13.0542 18.6667 15.9997 18.6667C18.9452 18.6667 21.333 16.2788 21.333 13.3333C21.333 10.3878 18.9452 8 15.9997 8ZM22.8152 21.3299C23.8256 21.9805 23.7762 23.3988 22.8561 24.1717C21.0021 25.7288 18.6106 26.6667 16 26.6667C13.4066 26.6667 11.0294 25.7412 9.18058 24.2024C8.25225 23.4297 8.20306 22.0043 9.21785 21.3493C9.53376 21.1455 9.87778 20.9668 10.2512 20.8129C11.7534 20.1936 13.6721 20 15.9998 20C18.3393 20 20.2689 20.1812 21.775 20.7939C22.1513 20.9469 22.4977 21.1255 22.8152 21.3299Z" fill="#2C4D6D"/>
</svg>
