<svg width="166" height="128" viewBox="0 0 166 128" fill="none" xmlns="http://www.w3.org/2000/svg">
<g clip-path="url(#clip0_115_1135)">
<path d="M0.554997 78.0203C0.554997 57.0924 0.553448 36.4239 0.556037 15.7555C0.557077 5.60884 6.09149 0.0868685 16.2739 0.0858308C60.7242 0.0826924 105.175 0.187556 149.624 0.000192993C158.808 -0.0387233 165.531 5.80967 165.481 15.88C165.32 48.1358 165.426 80.3926 165.417 112.649C165.415 122.262 159.744 127.924 150.091 127.926C105.382 127.938 60.6718 127.852 15.963 128C7.34895 128.028 0.393037 122.367 0.520712 112.525C0.668609 101.111 0.554997 89.6948 0.554997 78.0203ZM155.404 81.9128C155.404 61.5027 155.41 41.0922 155.402 20.6822C155.4 13.5068 151.925 10.0291 144.768 10.027C124.877 10.0213 104.985 10.0248 85.0942 10.0248C76.8211 10.0253 73.552 13.3188 73.55 21.6791C73.546 39.4086 73.5484 57.138 73.5484 74.867C73.5489 85.7641 73.498 96.6616 73.5682 107.558C73.6114 114.35 77.3215 117.987 83.9858 117.989C104.31 117.995 124.633 117.997 144.957 117.987C151.631 117.983 155.385 114.253 155.4 107.599C155.42 99.2098 155.404 90.8211 155.404 81.9128ZM43.7286 11.0665C42.6019 10.711 41.4788 10.0622 40.3469 10.0472C33.1699 9.95272 25.9903 9.95686 18.8123 10.0145C15.2598 10.043 13.076 12.0764 12.9997 15.5686C12.9038 19.9737 12.8612 24.3965 13.1413 28.7892C13.6364 36.5505 19.7256 43.0015 27.0563 43.8651C35.4928 44.8589 43.1644 40.6017 44.9399 32.5476C46.2311 26.693 45.695 20.4175 45.7567 14.3272C45.7665 13.3167 44.6623 12.2949 43.7286 11.0665Z" fill="#9FCAFE"/>
<path d="M155.404 82.1722C155.404 90.821 155.42 99.2098 155.4 107.599C155.385 114.253 151.631 117.984 144.957 117.987C124.633 117.997 104.31 117.993 83.9857 117.989C77.3215 117.987 73.6113 114.35 73.5682 107.558C73.4982 96.6616 73.5486 85.7641 73.5484 74.867C73.5484 57.138 73.5465 39.4086 73.55 21.6791C73.5519 13.3188 76.8211 10.0254 85.0942 10.0248C104.985 10.0248 124.877 10.0211 144.768 10.027C151.925 10.0292 155.4 13.5068 155.402 20.6822C155.41 41.0922 155.404 61.5027 155.404 82.1722ZM154.082 35.2044C154.082 30.5356 154.082 25.8674 154.082 21.1986C154.082 14.2105 151.212 11.352 144.179 11.3509C124.381 11.3484 104.583 11.3494 84.7848 11.3509C77.7204 11.3515 74.9667 14.1187 74.9651 21.2521C74.9592 46.1513 74.9631 71.0505 74.9631 95.9497C74.9631 96.8517 74.9631 97.7542 74.9631 98.6567C82.9368 88.5459 94.1239 86.4829 105.667 85.3853C105.667 83.9389 105.667 82.6809 105.667 81.5308C103.497 81.0596 101.451 80.7622 99.4985 80.1628C94.0653 78.4937 91.4496 74.3486 91.3759 67.5136C91.3602 66.0791 91.5311 64.9109 89.6457 64.0873C86.6262 62.768 85.4004 59.8872 85.363 56.6825C85.322 53.1378 86.7248 49.957 90.1345 48.8391C92.7777 47.9724 92.7502 46.3651 92.8421 44.4127C93.1228 38.4278 95.0125 33.1591 100.302 29.863C107.857 25.1553 115.923 24.2284 124.28 27.6018C128.156 29.1655 131.574 31.5466 132.897 35.658C134.072 39.31 134.532 43.191 135.338 46.9645C135.507 47.758 135.613 48.674 136.079 49.2781C139.369 53.5431 139.446 57.0494 136.283 61.4555C135.749 62.1992 135.055 63.0799 135.043 63.9062C134.945 70.9851 134.987 78.0661 134.987 84.6421C141.552 86.5452 147.813 88.3601 154.082 90.177C154.082 72.2011 154.082 53.9619 154.082 35.2044ZM132.714 99.4839C128.979 100.74 125.326 102.593 121.49 103.122C114.772 104.05 107.937 103.541 102.974 98.1501C100.444 95.4016 98.9141 91.7324 96.573 87.8888C93.7746 88.8157 90.2056 89.7659 86.826 91.1729C82.1448 93.1217 78.5446 96.6362 76.0239 100.888C74.9242 102.742 75.1831 105.51 75.1494 107.867C75.068 113.544 78.0251 116.476 83.7105 116.506C90.7137 116.543 97.7173 116.516 104.721 116.516C117.863 116.516 131.005 116.518 144.148 116.516C151.26 116.515 154.068 113.739 154.074 106.715C154.075 104.554 154.074 102.392 154.074 100.231C154.074 91.6129 153.633 91.0363 145.243 88.6687C145.16 88.6454 145.061 88.5644 145.001 88.5883C144.096 88.9506 142.799 89.0668 142.359 89.7405C139.868 93.5529 137.007 96.9409 132.714 99.4839ZM108.506 88.9552C109.903 90.1769 111.141 92.1174 112.73 92.4672C115.851 93.1549 119.219 93.3962 122.389 93.0179C126.511 92.5258 130.34 90.4852 132.552 86.9784C133.775 85.039 133.409 82.0954 133.75 79.6032C133.784 79.3484 133.723 79.0806 133.76 78.8263C134.211 75.6215 133.317 73.2306 130.607 71.0493C126.912 68.0745 127.109 67.09 131.094 64.3498C133.906 62.4166 136.08 60.1107 137.027 56.7944C138.206 52.6613 135.686 49.21 131.39 49.3756C129.558 49.4462 127.611 49.9418 125.969 50.754C123.513 51.9674 121.199 53.5207 118.992 55.156C118.064 55.8437 117.211 57.0218 116.934 58.1293C115.891 62.3024 113.664 64.7027 110.182 64.9653C106.933 65.2103 104 62.8484 102.656 59.0339C102.436 58.409 101.799 57.9305 101.355 57.384C100.82 57.9227 99.9971 58.3727 99.7994 59.0146C98.8902 61.9661 97.1334 63.9585 94.1212 64.8345C93.637 64.9752 93.0189 65.4142 92.8762 65.8507C91.5538 69.8946 94.0024 75.851 97.8838 77.9066C103.566 80.9157 109.386 80.296 115.22 78.3519C115.851 78.1417 116.496 77.9736 117.133 77.7857C117.215 78.0322 117.297 78.2787 117.379 78.5247C115.607 80.392 113.061 80.4969 110.723 80.9562C106.931 81.7004 106.863 81.6376 107.26 85.4692C107.372 86.5503 107.905 87.5882 108.506 88.9552ZM107.738 44.9912C111.018 44.383 114.298 43.7747 117.398 43.2002C118.803 46.189 120.092 48.9282 121.468 51.8558C125.367 48.9246 129.264 47.3407 133.78 47.9759C133.78 46.4651 133.922 45.2528 133.755 44.0841C133.031 38.9954 132.027 34.0231 127.307 30.8599C120.106 26.0344 112.488 25.9882 104.699 29.0305C99.5441 31.0436 95.9253 34.5047 94.768 40.2389C94.4005 42.06 94.9844 43.0061 96.477 43.2978C100.059 43.9989 103.685 44.4728 107.738 44.9912ZM98.2752 49.3995C99.2893 50.8521 98.6224 52.448 99.6604 53.8835C100.19 54.6158 100.792 55.2956 101.362 55.9989C101.818 55.2878 102.459 54.6334 102.697 53.8555C103.585 50.9533 106.142 48.6065 108.921 48.3267C112.143 48.0029 114.611 49.4965 116.125 52.6758C116.412 53.2794 116.731 53.8689 117.138 54.6661C118.324 53.9016 119.373 53.2259 120.342 52.6011C119.024 49.8894 117.826 47.4273 116.487 44.6726C109.239 46.3162 101.786 47.8436 94.2796 43.8256C94.0995 45.5751 93.9708 46.8269 93.8447 48.0486M115.039 59.8019C115.195 58.1173 115.663 56.3896 115.438 54.758C115.019 51.7146 112.194 49.3901 109.614 49.5443C106.714 49.7171 104.255 52.1163 103.803 55.2136C103.28 58.793 105.069 62.251 107.98 63.2864C110.569 64.2076 112.885 63.1561 115.039 59.8019ZM89.2304 50.7618C86.6931 53.1175 86.1046 55.962 87.1306 59.2004C87.8157 61.3641 89.0726 62.8997 91.6328 63.2822C91.8917 58.6571 92.1398 54.2151 92.4097 49.3891C91.2404 49.8676 90.3986 50.2117 89.2304 50.7618ZM95.0908 63.0186C98.3131 60.7423 99.5742 57.7572 98.432 54.3199C97.7454 52.2534 96.7946 50.1504 93.7476 49.9999C93.4684 54.2374 93.1695 58.3322 93.0081 62.4316C92.9983 62.6605 94.1265 62.934 95.0908 63.0186ZM133.776 71.0265C133.776 68.8743 133.776 66.7221 133.776 64.0669C132.223 65.1677 131.143 65.8185 130.223 66.6468C129.889 66.9468 129.658 67.9614 129.859 68.156C131.068 69.3258 132.416 70.3528 133.776 71.0265Z" fill="#070709"/>
<path d="M43.9009 11.1723C44.6623 12.2949 45.7672 13.3167 45.7568 14.3272C45.6956 20.4175 46.2311 26.693 44.9404 32.5481C43.1645 40.6022 35.4929 44.8589 27.0563 43.8651C19.7262 43.002 13.6365 36.5505 13.1414 28.7897C12.8611 24.3965 12.9042 19.9737 12.9997 15.5686C13.076 12.0764 15.2599 10.043 18.8124 10.015C25.9904 9.95737 33.17 9.9527 40.3475 10.0472C41.4789 10.0623 42.6019 10.7109 43.9009 11.1723ZM21.1182 40.0692C31.3125 46.4802 43.7904 40.1824 44.5123 28.1799C44.75 24.2216 44.6561 20.2389 44.5943 16.2692C44.5392 12.749 43.2149 11.451 39.6707 11.425C32.8498 11.3742 26.0288 11.384 19.2078 11.4203C15.7732 11.4386 14.5214 12.6737 14.4627 16.0922C14.4021 19.6312 14.4765 23.1722 14.441 26.7122C14.388 32.1558 16.3903 36.5874 21.1182 40.0692Z" fill="#1C1F22"/>
<path d="M154.082 35.4638C154.082 53.9624 154.082 72.201 154.082 90.1775C147.813 88.36 141.552 86.5451 134.987 84.6426C134.987 78.066 134.945 70.985 135.043 63.9061C135.055 63.0804 135.749 62.1992 136.283 61.4555C139.446 57.0493 139.369 53.5436 136.079 49.2786C135.613 48.6745 135.507 47.7585 135.338 46.9645C134.532 43.1909 134.073 39.31 132.898 35.6579C131.575 31.5466 128.156 29.166 124.281 27.6018C115.924 24.2289 107.857 25.1558 100.302 29.863C95.0124 33.1595 93.1228 38.4277 92.842 44.4131C92.7506 46.3656 92.7777 47.9729 90.135 48.839C86.7248 49.9569 85.322 53.1378 85.3635 56.6829C85.4008 59.8876 86.6267 62.768 89.6456 64.0872C91.531 64.9109 91.3603 66.0796 91.3759 67.5141C91.4496 74.3486 94.0652 78.4942 99.499 80.1627C101.452 80.7626 103.497 81.0595 105.667 81.5307C105.667 82.6808 105.667 83.9388 105.667 85.3852C94.1239 86.4829 82.9367 88.5463 74.9631 98.6572C74.9631 97.7546 74.9631 96.8521 74.9631 95.9496C74.9631 71.0504 74.9591 46.1517 74.965 21.2525C74.9666 14.1186 77.7203 11.3514 84.7847 11.3509C104.583 11.3493 124.381 11.3487 144.18 11.3514C151.212 11.3524 154.082 14.2105 154.082 21.1991C154.083 25.8673 154.082 30.5361 154.082 35.4638Z" fill="#2F94FB"/>
<path d="M132.863 99.3655C137.007 96.9409 139.868 93.5535 142.359 89.7405C142.799 89.0669 144.096 88.9506 145.001 88.5889C145.061 88.5646 145.16 88.646 145.243 88.6693C153.633 91.0364 154.074 91.6129 154.074 100.231C154.074 102.393 154.075 104.554 154.074 106.716C154.07 113.74 151.26 116.515 144.148 116.516C131.006 116.518 117.863 116.517 104.721 116.516C97.7178 116.516 90.7141 116.544 83.711 116.507C78.025 116.476 75.0679 113.544 75.1493 107.868C75.1831 105.51 74.9241 102.742 76.0238 100.888C78.5445 96.6362 82.1447 93.1217 86.8264 91.1729C90.2055 89.766 93.7751 88.8157 96.5735 87.8888C98.9146 91.7324 100.443 95.4021 102.974 98.1501C107.937 103.541 114.772 104.05 121.49 103.123C125.326 102.593 128.979 100.741 132.863 99.3655Z" fill="#2B4C59"/>
<path d="M108.376 88.8007C107.905 87.5883 107.371 86.5503 107.259 85.4693C106.862 81.6377 106.93 81.7005 110.722 80.9562C113.061 80.4969 115.607 80.3921 117.379 78.5248C117.297 78.2788 117.215 78.0323 117.133 77.7858C116.495 77.9737 115.85 78.1418 115.22 78.352C109.386 80.2961 103.565 80.9157 97.8833 77.9067C94.0019 75.851 91.5533 69.8947 92.8757 65.8507C93.0185 65.4143 93.6365 64.9752 94.1207 64.8346C97.1329 63.9585 98.8896 61.9662 99.7989 59.0147C99.9966 58.3727 100.819 57.9228 101.354 57.3841C101.799 57.9306 102.436 58.4091 102.656 59.0339C104 62.8484 106.932 65.2103 110.182 64.9654C113.663 64.7028 115.89 62.3025 116.934 58.1293C117.211 57.0218 118.064 55.8437 118.992 55.1561C121.198 53.5208 123.513 51.9675 125.968 50.7541C127.611 49.9419 129.557 49.4462 131.39 49.3757C135.686 49.2101 138.206 52.6613 137.026 56.7945C136.079 60.1108 133.906 62.4166 131.094 64.3498C127.108 67.0901 126.912 68.0746 130.607 71.0494C133.316 73.2307 134.211 75.6216 133.759 78.8263C133.723 79.0806 133.785 79.3484 133.749 79.6032C133.408 82.0954 133.775 85.0391 132.551 86.9785C130.34 90.4852 126.51 92.5259 122.389 93.0179C119.219 93.3962 115.851 93.155 112.729 92.4673C111.141 92.1175 109.903 90.177 108.376 88.8007Z" fill="#925656"/>
<path d="M107.516 45.0147C103.685 44.4728 100.058 43.999 96.4769 43.2984C94.9843 43.0062 94.3999 42.0601 94.7674 40.239C95.9247 34.5048 99.5436 31.0442 104.699 29.0305C112.487 25.9888 120.105 26.0344 127.306 30.8599C132.026 34.0237 133.03 38.996 133.755 44.0846C133.921 45.2529 133.78 46.4652 133.78 47.976C129.264 47.3407 125.367 48.9252 121.468 51.8559C120.091 48.9283 118.803 46.1891 117.398 43.2003C114.298 43.7753 111.018 44.3831 107.516 45.0147Z" fill="#EF8A9D"/>
<path d="M97.4656 50.356C96.7478 49.5609 94.7601 48.5452 93.8441 48.0486C93.9702 46.8269 94.0989 45.5751 94.279 43.8256C101.786 47.8436 109.239 46.3162 116.486 44.6726C117.826 47.4274 119.023 49.8894 120.342 52.6011C119.372 53.2259 118.323 53.9017 117.137 54.6661C116.73 53.869 116.412 53.2794 116.124 52.6758C114.611 49.4965 112.142 48.0029 108.921 48.3268C106.141 48.6065 103.585 50.9533 102.696 53.8555C102.458 54.6334 101.817 55.2879 101.361 55.9989C100.792 55.2957 100.189 54.6158 99.6598 53.8835C98.6219 52.448 98.775 51.846 97.4656 50.356Z" fill="#8B5252"/>
<path d="M114.978 60.1351C112.915 63.3082 110.568 64.329 107.98 63.4078C105.069 62.3725 103.19 58.7931 103.713 55.2136C104.165 52.1163 106.625 49.5391 109.525 49.3663C112.104 49.2121 115.137 51.7147 115.556 54.758C115.781 56.3896 115.56 57.4842 115.313 59.3494M109.368 56.0341C108.508 56.5023 107.521 56.5453 106.952 57.2486C106.73 57.5221 107.421 58.9633 108.028 59.3447C108.517 59.652 110.153 59.2077 110.165 59.025C110.23 58.0042 109.89 57.2299 109.368 56.0341Z" fill="#915656"/>
<path d="M89.3004 50.6404C90.3052 50.1931 91.2399 49.8677 92.4091 49.3892C92.1393 54.2152 91.8912 58.6571 91.6322 63.2823C89.0721 62.8998 87.8151 61.3641 87.13 59.2005C86.104 55.9621 86.5996 53.0994 89.3004 50.6404Z" fill="#2D8FF1"/>
<path d="M94.3548 63.1333C93.5732 62.9647 92.939 62.6605 92.9483 62.4317C93.1097 58.3322 93.3858 54.0418 93.665 49.8043C96.712 49.9548 97.8065 52.2534 98.4931 54.32C99.6354 57.7572 98.6202 60.6547 95.2152 63.015" fill="#885050"/>
<path d="M133.747 71.2274C132.416 70.3529 131.068 69.3264 129.858 68.156C129.658 67.962 129.889 66.9473 130.222 66.6468C131.142 65.8186 132.223 65.1677 133.775 64.0675C133.775 66.7226 133.775 68.8748 133.747 71.2274Z" fill="#D97D8F"/>
<path d="M20.9546 39.9701C16.3902 36.5869 14.3874 32.1553 14.4409 26.7117C14.4756 23.1723 14.4021 19.6312 14.4627 16.0923C14.5207 12.6738 15.7731 11.4386 19.2077 11.4204C26.0282 11.3841 32.8497 11.3742 39.6701 11.4245C43.2148 11.451 44.5392 12.749 44.5943 16.2692C44.656 20.2389 44.75 24.2216 44.5117 28.1794C43.7903 40.1824 31.312 46.4803 20.9546 39.9701Z" fill="#CDCDCD"/>
<path d="M126.034 59.6961C127.438 58.3556 128.972 57.135 130.506 55.9143C130.737 56.2506 130.968 56.5869 131.2 56.9232C129.837 58.3442 128.312 59.5321 126.034 59.6961Z" fill="#1A0F0F"/>
<path d="M102.525 69.1058C101.492 68.9564 100.653 68.7695 99.8129 68.5822C99.8266 68.359 99.8388 68.1359 99.8513 67.9127C101.401 67.5691 102.951 67.225 104.5 66.8815C104.655 67.047 104.81 67.2126 104.965 67.3787C104.216 67.9418 103.468 68.5049 102.525 69.1058Z" fill="#1A0F0F"/>
<path d="M101.552 61.6148C101.747 62.7234 101.888 63.6347 102.053 64.6971C100.331 64.9893 100.069 63.9503 100.085 62.6507C100.101 61.3777 100.176 61.3216 101.552 61.6148Z" fill="#1A0F0F"/>
<path d="M109.618 55.8463C109.957 56.9616 110.23 58.0042 110.165 59.0256C110.153 59.2078 108.517 59.6525 108.028 59.3448C107.421 58.9633 106.73 57.5221 106.952 57.2486C107.522 56.5454 108.575 56.234 109.618 55.8463Z" fill="#070709"/>
<path d="M94.0756 56.96C95.0871 56.5297 96.0435 56.0549 96.9398 56.1493C97.287 56.1857 97.86 57.6269 97.6716 58.2185C97.4749 58.8345 96.4847 59.1978 95.8411 59.6717C95.2266 58.8288 94.6117 57.9855 94.0756 56.96Z" fill="#070709"/>
<path d="M38.0848 24.4779C40.0066 25.4795 38.2083 25.6783 37.8787 25.8267C33.8385 27.6504 31.0593 30.6065 29.5309 35.3993C27.4514 30.3989 24.3805 26.984 19.5104 25.3337C26.2894 20.421 25.4372 21.9011 29.5159 15.3194C31.2041 19.5325 33.8914 22.6345 38.0848 24.4779Z" fill="#1C1F22"/>
<path d="M32.2338 22.6941C33.4321 23.6532 33.9968 24.0538 35.0638 24.8811C34.1701 25.4561 30.587 28.0811 29.2984 30.4155C28.0918 29.1476 25.1159 26.656 23.4827 24.9397C27.3533 22.7746 27.5567 21.9738 29.7354 19.6368C29.4261 19.2813 31.0775 21.3297 32.2338 22.6941Z" fill="#9EC8FC"/>
<path d="M19.4432 104.319V116.412V104.319Z" fill="#D8D8D8"/>
<path d="M19.4432 104.319V116.412" stroke="black" stroke-width="2"/>
<path d="M24.6418 104.319V116.412V104.319Z" fill="#D8D8D8"/>
<path d="M24.6418 104.319V116.412" stroke="black"/>
<path d="M27.0204 104.319V116.412V104.319Z" fill="#D8D8D8"/>
<path d="M27.0204 104.319V116.412" stroke="black" stroke-width="2"/>
<path d="M29.4731 104.319V116.412V104.319Z" fill="#D8D8D8"/>
<path d="M29.4731 104.319V116.412" stroke="black" stroke-width="2"/>
<path d="M36.5992 104.319V116.412V104.319Z" fill="#D8D8D8"/>
<path d="M36.5992 104.319V116.412" stroke="black" stroke-width="2"/>
<path d="M39.4967 104.319V116.412V104.319Z" fill="#D8D8D8"/>
<path d="M39.4967 104.319V116.412" stroke="black" stroke-width="2"/>
<path d="M42.4684 104.319V116.412V104.319Z" fill="#D8D8D8"/>
<path d="M42.4684 104.319V116.412" stroke="black" stroke-width="2"/>
<path d="M45.4401 104.319V116.412V104.319Z" fill="#D8D8D8"/>
<path d="M45.4401 104.319V116.412" stroke="black"/>
<path d="M50.3953 104.319V116.412V104.319Z" fill="#D8D8D8"/>
<path d="M50.3953 104.319V116.412" stroke="black" stroke-width="2"/>
</g>
<defs>
<clipPath id="clip0_115_1135">
<rect width="164.962" height="128" fill="white" transform="translate(0.518982)"/>
</clipPath>
</defs>
</svg>
