<svg width="650" height="583" viewBox="0 0 650 583" fill="none" xmlns="http://www.w3.org/2000/svg">
<g clip-path="url(#clip0_105_835)">
<path d="M545.7 94.1293H496.799C496.799 94.1293 491.146 123.038 508.165 138.367H557.066C540.047 123.038 545.7 94.1293 545.7 94.1293Z" fill="#D7E2EF" stroke="black" stroke-width="4"/>
<path d="M477.158 69.1253H428.257C428.257 69.1253 422.603 98.0344 439.623 113.363H488.523C471.446 98.0344 477.158 69.1253 477.158 69.1253Z" fill="#30A9FF" stroke="black" stroke-width="4"/>
<path d="M356.55 -7.62939e-05H406.966C418.564 -7.62939e-05 427.948 9.38372 427.948 20.9823V21.9149C427.948 33.5135 418.564 42.8973 406.966 42.8973H356.55C344.951 42.8973 335.567 33.5135 335.567 21.9149V20.9823C335.567 9.38372 344.951 -7.62939e-05 356.55 -7.62939e-05Z" fill="#3267FF" stroke="black" stroke-width="4"/>
<path d="M365.759 24.2463C369.203 24.2463 371.995 21.4544 371.995 18.0098C371.995 14.5652 369.203 11.7734 365.759 11.7734C362.314 11.7734 359.522 14.5652 359.522 18.0098C359.522 21.4544 362.314 24.2463 365.759 24.2463Z" stroke="black" stroke-width="4" stroke-linecap="round" stroke-linejoin="round"/>
<path d="M370.771 21.7983L363.252 31.1821" stroke="black" stroke-width="4" stroke-linecap="round" stroke-linejoin="round"/>
<path d="M385.167 24.2463C388.612 24.2463 391.404 21.4544 391.404 18.0098C391.404 14.5652 388.612 11.7734 385.167 11.7734C381.723 11.7734 378.931 14.5652 378.931 18.0098C378.931 21.4544 381.723 24.2463 385.167 24.2463Z" stroke="black" stroke-width="4" stroke-linecap="round" stroke-linejoin="round"/>
<path d="M390.18 21.7983L382.661 31.1821" stroke="black" stroke-width="4" stroke-linecap="round" stroke-linejoin="round"/>
<path d="M402.07 17.0773V25.8782" stroke="black" stroke-width="4" stroke-linecap="round" stroke-linejoin="round"/>
<path d="M406.441 21.5069H397.698" stroke="black" stroke-width="4" stroke-linecap="round" stroke-linejoin="round"/>
<path d="M476.353 213.146H395.921C391.491 213.146 387.878 209.533 387.878 205.103V148.509C387.878 144.079 391.491 140.465 395.921 140.465H417.661C420.517 140.465 423.14 141.981 424.597 144.429L427.103 148.684C428.56 151.132 431.183 152.647 434.039 152.647H476.412C480.841 152.647 484.455 156.261 484.455 160.69V205.103C484.455 209.533 480.841 213.146 476.353 213.146C476.412 213.146 476.412 213.146 476.353 213.146Z" fill="#61D4FF"/>
<path d="M476.353 213.146H395.921C391.491 213.146 387.878 209.533 387.878 205.103V148.509C387.878 144.079 391.491 140.465 395.921 140.465H417.661C420.517 140.465 423.14 141.981 424.597 144.429L427.103 148.684C428.56 151.132 431.183 152.647 434.039 152.647H476.412C480.841 152.647 484.455 156.261 484.455 160.69V205.103C484.455 209.533 480.841 213.146 476.353 213.146ZM476.353 213.146C476.412 213.146 476.412 213.146 476.353 213.146Z" stroke="black" stroke-width="4"/>
<path d="M141.159 347.259H279.294C289.202 347.259 297.303 355.302 297.303 365.269V503.403C297.303 513.311 289.26 521.413 279.294 521.413H141.159C131.251 521.413 123.149 513.369 123.149 503.403V365.269C123.149 355.302 131.193 347.259 141.159 347.259Z" fill="#61D4FF" stroke="black" stroke-width="4"/>
<path d="M145.822 487.957H274.573" stroke="black" stroke-width="4" stroke-linecap="round" stroke-linejoin="round"/>
<path d="M145.822 487.957V385.435" stroke="black" stroke-width="4" stroke-linecap="round" stroke-linejoin="round"/>
<path d="M139.877 431.305C162.55 431.305 160.743 462.312 176.829 462.312C200.668 462.312 204.864 396.159 231.675 396.159C258.486 396.159 254.931 433.695 273.407 433.695" stroke="black" stroke-width="4" stroke-linecap="round" stroke-linejoin="round"/>
<path d="M209.585 424.194C214.866 424.194 219.144 419.916 219.144 414.636C219.144 409.355 214.866 405.077 209.585 405.077C204.305 405.077 200.027 409.355 200.027 414.636C200.027 419.916 204.305 424.194 209.585 424.194Z" fill="white" stroke="black" stroke-width="4"/>
<path d="M169.66 487.375V482.012" stroke="black" stroke-width="4" stroke-linecap="round" stroke-linejoin="round"/>
<path d="M193.499 487.375V482.012" stroke="black" stroke-width="4" stroke-linecap="round" stroke-linejoin="round"/>
<path d="M217.337 487.375V482.012" stroke="black" stroke-width="4" stroke-linecap="round" stroke-linejoin="round"/>
<path d="M241.176 487.375V482.012" stroke="black" stroke-width="4" stroke-linecap="round" stroke-linejoin="round"/>
<path d="M265.072 487.375V482.012" stroke="black" stroke-width="4" stroke-linecap="round" stroke-linejoin="round"/>
<path d="M49.0816 257.11C43.9059 257.098 38.9459 255.041 35.2857 251.381C31.6254 247.721 29.5621 242.761 29.5621 237.585V52.555C29.5621 47.3794 31.6254 42.4194 35.2857 38.7591C38.9459 35.0988 43.9059 33.0356 49.0816 33.0297H289.144C294.319 33.0356 299.279 35.0988 302.94 38.7591C306.6 42.4194 308.657 47.3794 308.663 52.555V237.585C308.657 242.761 306.6 247.721 302.94 251.381C299.279 255.041 294.319 257.098 289.144 257.11H49.0816Z" fill="white" stroke="black" stroke-width="4"/>
<path d="M29.5738 74.9712H309.526" stroke="black" stroke-width="4"/>
<path d="M50.1016 60.9946C54.199 60.9946 57.527 57.6724 57.527 53.575C57.527 49.4718 54.199 46.1496 50.1016 46.1496C45.9984 46.1496 42.6761 49.4718 42.6761 53.575C42.6761 57.6724 45.9984 60.9946 50.1016 60.9946Z" fill="white" stroke="black" stroke-width="4"/>
<path d="M72.5994 60.9946C76.7026 60.9946 80.0248 57.6724 80.0248 53.575C80.0248 49.4718 76.7026 46.1496 72.5994 46.1496C68.502 46.1496 65.174 49.4718 65.174 53.575C65.174 57.6724 68.502 60.9946 72.5994 60.9946Z" fill="white" stroke="black" stroke-width="4"/>
<path d="M95.0972 60.9946C99.2004 60.9946 102.523 57.6724 102.523 53.575C102.523 49.4718 99.2004 46.1496 95.0972 46.1496C90.9998 46.1496 87.6718 49.4718 87.6718 53.575C87.6718 57.6724 90.9998 60.9946 95.0972 60.9946Z" fill="white" stroke="black" stroke-width="4"/>
<path d="M107.028 131.577H76.8308V225.561H107.028V131.577Z" fill="#61D4FF" stroke="black" stroke-width="4"/>
<path d="M216.265 117.834H186.068V225.561H216.265V117.834Z" fill="#D7E2EF" stroke="black" stroke-width="4"/>
<path d="M161.606 97.9819H131.408V225.561H161.606V97.9819Z" fill="#A0D6FF" stroke="black" stroke-width="4"/>
<path d="M270.842 171.28H240.645V225.561H270.842V171.28Z" fill="#A0D6FF" stroke="black" stroke-width="4"/>
<path d="M61.7293 225.561H285.944" stroke="black" stroke-width="4" stroke-linecap="round" stroke-linejoin="round"/>
<path d="M435.379 265.544H565.995C572.698 265.544 578.176 271.023 578.176 277.725V427.458C578.176 434.161 572.698 439.64 565.995 439.64H435.379C428.677 439.64 423.198 434.161 423.198 427.458V277.725C423.198 270.964 428.677 265.544 435.379 265.544Z" fill="#D7E2EF" stroke="black" stroke-width="4"/>
<path d="M451 304.012L456.362 309.374L465.046 300.748" stroke="black" stroke-width="4" stroke-linecap="round" stroke-linejoin="round"/>
<path d="M461.444 356.305C464.143 354.434 464.813 350.733 462.948 348.034C461.077 345.33 457.376 344.659 454.677 346.53C451.973 348.395 451.303 352.102 453.168 354.801C455.039 357.499 458.746 358.175 461.444 356.305Z" stroke="black" stroke-width="4" stroke-linecap="round" stroke-linejoin="round"/>
<path d="M461.438 402.582C464.137 400.711 464.813 397.01 462.942 394.312C461.077 391.613 457.37 390.937 454.672 392.808C451.973 394.673 451.297 398.38 453.168 401.079C455.039 403.777 458.74 404.453 461.438 402.582Z" stroke="black" stroke-width="4" stroke-linecap="round" stroke-linejoin="round"/>
<path d="M481.89 306.168H536.095" stroke="black" stroke-width="4" stroke-linecap="round" stroke-linejoin="round"/>
<path d="M481.89 351.455H536.095" stroke="black" stroke-width="4" stroke-linecap="round" stroke-linejoin="round"/>
<path d="M481.89 397.325H536.095" stroke="black" stroke-width="4" stroke-linecap="round" stroke-linejoin="round"/>
<path d="M579.948 272.853H588.166" stroke="black" stroke-width="4" stroke-linecap="round" stroke-linejoin="round"/>
<path d="M563.104 300.188C599.992 300.188 629.898 270.282 629.898 233.394C629.898 196.506 599.992 166.6 563.104 166.6C526.216 166.6 496.31 196.506 496.31 233.394C496.31 270.282 526.216 300.188 563.104 300.188Z" fill="white" stroke="black" stroke-width="4"/>
<path d="M588.807 273.494V267.141L551.214 267.083V274.077H538.683C529.182 274.077 521.547 279.672 518.108 282.703C545.327 307.59 587.525 305.667 612.413 278.448C612.762 278.04 613.17 277.632 613.52 277.224C609.906 274.834 605.652 273.552 601.28 273.436L588.807 273.494Z" fill="#61D4FF" stroke="black" stroke-width="4"/>
<path d="M531.864 236.716C533.204 229.955 533.146 221.621 534.311 214.102C535.127 208.973 536.468 204.252 539.266 200.755C546.143 192.187 564.619 188.865 579.424 199.706C594.228 210.547 593.47 225.817 592.887 232.695L588.749 255.834L588.807 267.316H551.214L551.156 261.079C551.156 261.079 542.938 262.828 538.1 259.506C531.572 255.018 529.59 248.082 531.864 236.716Z" fill="#AC704E" stroke="black" stroke-width="4"/>
<path d="M539.266 200.755C546.143 192.187 565.727 186.825 580.531 197.666C595.335 208.507 593.47 225.817 592.887 232.695L588.749 255.834C588.749 255.834 577.617 252.337 572.896 243.477C572.896 243.477 589.041 236.25 581.697 225.876C574.644 215.909 562.346 228.207 562.346 228.207C555.294 225.876 548.241 215.851 548.241 215.851C537.692 216.433 534.311 214.044 534.311 214.044C535.127 208.973 536.468 204.252 539.266 200.755Z" fill="#221F1F" stroke="black" stroke-width="4"/>
<path d="M549.99 233.161C550.987 233.161 551.797 232.351 551.797 231.354C551.797 230.358 550.987 229.547 549.99 229.547C548.993 229.547 548.183 230.358 548.183 231.354C548.183 232.351 548.993 233.161 549.99 233.161Z" fill="black" stroke="black" stroke-width="4"/>
<path d="M537.109 231.937C538.106 231.937 538.916 231.127 538.916 230.13C538.916 229.134 538.106 228.323 537.109 228.323C536.107 228.323 535.302 229.134 535.302 230.13C535.302 231.127 536.107 231.937 537.109 231.937Z" fill="black" stroke="black" stroke-width="4"/>
<path d="M541.014 236.134C540.723 237.124 540.548 237.999 540.723 238.348C541.014 238.873 541.48 239.339 542.005 239.631" stroke="black" stroke-width="4" stroke-linecap="round" stroke-linejoin="round"/>
<path d="M547.017 244.701C545.91 245.751 544.336 246.217 542.821 245.867" stroke="black" stroke-width="4" stroke-linecap="round" stroke-linejoin="round"/>
<path d="M558.325 259.622C556.226 260.555 553.37 260.38 551.156 261.079" stroke="black" stroke-width="4" stroke-linecap="round" stroke-linejoin="round"/>
<path d="M572.896 232.345L568.816 235.259" stroke="black" stroke-width="4" stroke-linecap="round" stroke-linejoin="round"/>
<path d="M629.507 149.261H598.762C587.461 149.261 578.27 158.452 578.27 169.759C578.27 179.819 585.578 188.369 595.504 189.978V200.498L610.53 190.252H629.507C640.809 190.252 650 181.061 650 169.759C650 158.405 640.809 149.261 629.507 149.261Z" fill="#A0D6FF" stroke="black" stroke-width="4"/>
<path d="M602.627 172.236C604.171 172.236 605.43 170.983 605.43 169.433C605.43 167.888 604.171 166.629 602.627 166.629C601.076 166.629 599.823 167.888 599.823 169.433C599.823 170.983 601.076 172.236 602.627 172.236Z" fill="white" stroke="black" stroke-width="4"/>
<path d="M614.115 172.236C615.659 172.236 616.918 170.983 616.918 169.433C616.918 167.888 615.659 166.629 614.115 166.629C612.564 166.629 611.311 167.888 611.311 169.433C611.311 170.983 612.564 172.236 614.115 172.236Z" fill="white" stroke="black" stroke-width="4"/>
<path d="M625.649 172.236C627.194 172.236 628.453 170.983 628.453 169.433C628.453 167.888 627.194 166.629 625.649 166.629C624.099 166.629 622.846 167.888 622.846 169.433C622.846 170.983 624.099 172.236 625.649 172.236Z" fill="white" stroke="black" stroke-width="4"/>
<path d="M94.1704 474.255H147.676C155.293 474.255 161.46 480.421 161.46 488.039V516.75C161.46 524.368 155.293 530.534 147.676 530.534H94.1704C86.5527 530.534 80.3862 524.368 80.3862 516.75V488.039C80.3862 480.421 86.5527 474.255 94.1704 474.255Z" fill="#A0D6FF" stroke="black" stroke-width="4"/>
<path d="M120.9 507.016L157.123 478.072C154.722 475.706 151.377 474.255 147.676 474.255H94.1704C90.4693 474.255 87.1238 475.706 84.705 478.043L120.9 507.016Z" fill="#A0D6FF" stroke="black" stroke-width="4"/>
<path d="M156.966 478.171L120.9 506.976L84.775 478.113" stroke="black" stroke-width="4" stroke-linecap="round" stroke-linejoin="round"/>
<path d="M128.477 501.736L157.893 525.294" stroke="black" stroke-width="4" stroke-linecap="round" stroke-linejoin="round"/>
<path d="M83.7317 525.16L113.241 501.602" stroke="black" stroke-width="4" stroke-linecap="round" stroke-linejoin="round"/>
<path d="M135.098 370.514C156.343 370.514 173.566 353.291 173.566 332.047C173.566 310.802 156.343 293.579 135.098 293.579C113.853 293.579 96.6301 310.802 96.6301 332.047C96.6301 353.291 113.853 370.514 135.098 370.514Z" fill="#3267FF" stroke="black" stroke-width="4"/>
<path d="M145.589 342.538C155.439 332.688 158.703 319.982 152.875 314.153C152 313.279 150.951 312.579 149.844 312.113C148.853 311.705 147.804 311.472 146.755 311.356C145.88 311.239 145.006 311.705 144.656 312.463L139.994 321.497C139.469 322.546 139.877 323.77 140.868 324.295C140.926 324.353 140.985 324.353 141.043 324.353L143.607 325.402C144.656 325.81 145.123 326.976 144.715 327.967C144.656 328.083 144.598 328.2 144.54 328.258C141.218 333.562 136.73 338.05 131.426 341.43C130.493 342.013 129.269 341.722 128.687 340.789C128.628 340.673 128.57 340.556 128.512 340.498L127.463 337.875C127.055 336.826 125.831 336.301 124.781 336.709L124.607 336.768L115.573 341.43C114.815 341.78 114.349 342.596 114.465 343.47C114.582 344.578 114.815 345.627 115.223 346.676C115.689 347.842 116.389 348.832 117.263 349.707C123.033 355.652 135.739 352.388 145.589 342.538Z" fill="white" stroke="black" stroke-width="4"/>
<path d="M306.221 89.0294C296.429 83.609 286.987 81.2776 280.692 83.7838C266.121 88.9712 259.535 113.509 259.302 114.5C259.302 114.5 253.94 114.441 253.182 116.598C252.308 119.279 256.213 123.242 256.213 123.242C254.115 129.304 251.783 137.522 255.222 144.633C258.486 151.336 267.054 154.833 277.778 153.084L277.428 157.047L319.16 163.342C319.685 161.594 322.774 130.003 323.357 124C324.522 111.294 321.9 97.6555 306.221 89.0294Z" fill="#AC704E" stroke="black" stroke-width="4"/>
<path d="M420.284 551.225L462.54 532.108L460.319 520.317C459.917 517.887 459.276 515.555 458.635 513.34C458.169 511.767 457.702 510.135 457.178 508.503C455.196 501.975 452.806 494.689 449.892 486.646C446.92 478.37 443.831 470.909 440.683 464.032L383.506 484.198C391.375 496.146 398.952 508.328 403.673 517.945C404.955 520.393 406.004 523.074 406.937 525.697L420.284 551.225Z" fill="#AC704E" stroke="black" stroke-width="4"/>
<path d="M442.956 527.737C435.263 531.001 432.931 543.707 428.036 544.464C423.198 545.222 427.686 532.982 424.655 525.813C421.974 519.518 415.796 521.792 406.762 525.638C407.345 527.27 407.811 528.902 408.219 530.534C409.093 534.323 409.21 537.587 408.335 540.151C403.731 553.557 391.666 560.609 391.375 573.373L391.433 573.723L465.454 542.249V542.191C464.055 534.906 462.365 527.445 460.383 520.16L442.956 527.737Z" fill="#D7E2EF" stroke="black" stroke-width="4"/>
<path d="M417.544 540.909L408.644 540.076" stroke="black" stroke-width="4" stroke-linecap="round" stroke-linejoin="round"/>
<path d="M415.213 550.351L405.31 547.221" stroke="black" stroke-width="4" stroke-linecap="round" stroke-linejoin="round"/>
<path d="M251.842 144.4C247.004 142.243 242.4 150.636 238.145 155.124C236.163 157.222 233.773 158.271 232.783 156.29C228.586 147.955 248.286 145.565 250.093 142.01C251.9 138.455 248.927 136.065 241.758 137.231C231.034 134.258 221.067 139.096 216.696 146.148C211.917 153.9 212.325 156.348 202.999 172.959C201.309 175.99 199.56 179.254 197.928 182.518L225.497 199.945L240.593 174.183C240.534 174.183 257.204 146.789 251.842 144.4Z" fill="#AC704E" stroke="black" stroke-width="4"/>
<path d="M347.195 188.521C339.443 174.533 326.329 166.431 319.16 163.459C319.335 162.934 319.685 160.078 320.093 156.115L277.428 156.29L276.787 162.759C276.787 162.759 265.538 162.992 257.728 165.149C251.2 166.956 246.421 168.821 240.418 174.183L222.524 195.573L198.162 181.76C186.388 205.19 177.354 234.099 194.49 248.029C217.162 266.506 252.308 232.584 252.308 232.584L264.373 271.984L330.001 273.034L341.775 282.534C341.775 282.534 351.1 281.66 356.579 278.454C382.282 263.766 356.171 204.608 347.195 188.521Z" fill="#30A9FF" stroke="black" stroke-width="4"/>
<path d="M374.006 187.88C369.227 150.928 331.691 152.093 326.329 124.7C323.124 108.322 323.531 95.2659 307.853 86.5815C298.061 81.161 286.987 81.2776 280.692 83.7838C272.824 86.5815 267.462 94.275 264.373 100.919L272.882 108.438C272.882 108.438 286.655 100.809 286.404 101.386C280.459 109.138 277.662 113.043 277.662 113.043L286.871 121.902C286.871 121.902 304.706 112.343 308.378 123.767C312.049 135.191 294.098 143.176 294.098 143.176C290.542 176.514 305.463 187.938 305.463 187.938H318.81C318.81 187.938 314.637 170.295 315.605 171.269C320.967 178.438 330.234 187.938 330.234 187.938L374.006 187.88Z" fill="#221F1F" stroke="black" stroke-width="4"/>
<path d="M329.943 271.926L338.219 221.86" stroke="black" stroke-width="4" stroke-linecap="round" stroke-linejoin="round"/>
<path d="M334.081 251.643L342.416 255.198" stroke="black" stroke-width="4" stroke-linecap="round" stroke-linejoin="round"/>
<path d="M252.774 232.176L265.538 221.568" stroke="black" stroke-width="4" stroke-linecap="round" stroke-linejoin="round"/>
<path d="M226.196 143.759C230.323 140.617 236.297 138.192 241.665 137.266" stroke="black" stroke-width="4" stroke-linecap="round" stroke-linejoin="round"/>
<path d="M261.867 128.546L266.762 128.313" stroke="black" stroke-width="4" stroke-linecap="round" stroke-linejoin="round"/>
<path d="M278.186 153.026C280.576 152.151 282.907 151.277 285.239 150.403" stroke="black" stroke-width="4" stroke-linecap="round" stroke-linejoin="round"/>
<path d="M277.428 162.818H282.732" stroke="black" stroke-width="4" stroke-linecap="round" stroke-linejoin="round"/>
<path d="M292.291 131.111L297.537 128.546" stroke="black" stroke-width="4" stroke-linecap="round" stroke-linejoin="round"/>
<path d="M268.22 118.347C269.251 118.347 270.085 117.513 270.085 116.481C270.085 115.45 269.251 114.616 268.22 114.616C267.188 114.616 266.354 115.45 266.354 116.481C266.354 117.513 267.188 118.347 268.22 118.347Z" fill="#221F1F" stroke="black" stroke-width="4"/>
<path d="M324.872 95.499C333.918 95.499 341.25 88.1668 341.25 79.1211C341.25 70.0753 333.918 62.7431 324.872 62.7431C315.826 62.7431 308.494 70.0753 308.494 79.1211C308.494 88.1668 315.826 95.499 324.872 95.499Z" fill="#221F1F" stroke="black" stroke-width="4"/>
<path d="M294.098 72.2435L333.498 108.613" stroke="black" stroke-width="4" stroke-linecap="round" stroke-linejoin="round"/>
<path d="M330.234 541.608C331.05 534.264 331.75 525.813 332.274 516.313C332.74 508.27 332.857 500.693 332.624 493.698L273.057 493.64C275.563 507.628 277.428 520.742 277.545 530.942C277.545 532.982 277.545 534.847 277.428 536.712L281.8 561.308L291.242 568.652L325.163 564.806L328.777 552.741C329.127 550.234 329.476 547.728 329.768 545.222C330.001 543.998 330.176 542.832 330.234 541.608Z" fill="#AC704E" stroke="black" stroke-width="4"/>
<path d="M290.484 562.241C285.705 561.075 294.681 551.517 294.681 543.765C294.681 536.712 287.803 536.596 277.487 536.596H277.428C277.195 539.918 276.671 542.832 275.855 545.164C275.33 546.737 274.456 548.253 273.349 549.477C263.79 560.026 250.035 562.183 244.731 573.315L244.789 575.763L324.289 574.656L325.163 573.315C326.679 566.437 327.903 559.502 328.835 552.624H310.767C302.491 552.682 295.322 563.465 290.484 562.241Z" fill="#D7E2EF" stroke="black" stroke-width="4"/>
<path d="M402.041 400.094C385.313 376.547 381.35 346.88 366.953 317.563C352.557 288.246 329.884 271.926 329.884 271.926H309.835C309.835 271.868 309.776 271.868 309.776 271.868H264.373C264.373 271.868 253.357 343.907 262.741 432.325C264.722 451.326 269.443 474.698 273.057 494.922L342.824 495.272C348.186 476.097 326.912 451.034 321.666 428.711C318.286 414.14 320.559 396.538 323.357 378.412C332.449 397.296 342.532 417.113 353.14 436.347C361.708 451.792 373.481 468.986 384.031 485.072L451.582 460.301C446.162 429.294 410.55 412.042 402.041 400.094Z" fill="#A0D6FF" stroke="black" stroke-width="4"/>
<path d="M280.751 554.139L273.016 549.879" stroke="black" stroke-width="4" stroke-linecap="round" stroke-linejoin="round"/>
<path d="M274.631 561.308L267.479 555.183" stroke="black" stroke-width="4" stroke-linecap="round" stroke-linejoin="round"/>
<path d="M351.391 293.841H340.725L343.931 305.731C345.563 311.734 352.091 316.572 356.87 316.572C360.833 316.572 363.107 315.348 364.505 313.366" stroke="black" stroke-width="4" stroke-linecap="round" stroke-linejoin="round"/>
<path d="M323.298 378.412C325.28 361.801 330.118 345.539 331.108 329.395" stroke="black" stroke-width="4" stroke-linecap="round" stroke-linejoin="round"/>
<path d="M309.019 316.63C314.964 316.63 318.519 311.793 316.945 305.848L313.74 294.016H292.174L295.38 305.848C297.012 311.793 303.132 316.63 309.019 316.63Z" stroke="black" stroke-width="4" stroke-linecap="round" stroke-linejoin="round"/>
<path d="M276.438 272.567C273.115 298.212 271.95 365.939 278.652 405.456C285.18 444.215 294.739 463.857 296.779 493.349" stroke="black" stroke-width="4" stroke-linecap="round" stroke-linejoin="round"/>
<path d="M204.864 219.761L222.117 195.865" stroke="black" stroke-width="4" stroke-linecap="round" stroke-linejoin="round"/>
<path d="M466.736 550.934L392.832 582.116C391.783 579.318 391.258 576.171 391.316 573.199L465.396 541.958C466.503 547.728 466.736 550.934 466.736 550.934Z" fill="#A0D6FF" stroke="black" stroke-width="4"/>
<path d="M322.89 582.116H242.691C242.866 579.085 243.565 576.113 244.789 573.373H325.222C323.881 579.26 322.89 582.116 322.89 582.116Z" fill="#A0D6FF" stroke="black" stroke-width="4"/>
<path d="M20.5397 426.969L10.4565 442.07L28.8219 434.575L20.5397 426.969Z" fill="white" stroke="black" stroke-width="4"/>
<path d="M20.5397 426.969L31.1824 450.469L65.9608 409.128C66.0365 409.052 65.9608 408.941 65.85 408.982L20.5397 426.969Z" fill="white" stroke="black" stroke-width="4"/>
<path d="M0.000244141 412.275L20.5397 426.969L65.885 408.982C65.9258 408.941 65.9258 408.865 65.85 408.865L0.000244141 412.275Z" fill="white" stroke="black" stroke-width="4"/>
<path d="M20.5397 426.969L24.9984 436.825" stroke="black" stroke-width="4" stroke-linecap="round" stroke-linejoin="round"/>
<path d="M65.85 408.982L20.5397 426.969" stroke="black" stroke-width="4" stroke-linecap="round" stroke-linejoin="round"/>
</g>
<defs>
<clipPath id="clip0_105_835">
<rect width="650" height="582.116" fill="white"/>
</clipPath>
</defs>
</svg>
