<svg width="135" height="36" viewBox="0 0 135 36" fill="none" xmlns="http://www.w3.org/2000/svg">
<path d="M26.8 34.5H0.64V34.26C2.08 32.34 2.56 29.94 2.56 26.82V8.58C2.56 5.46 2.08 3.06 0.64 1.14V0.899998H14.08V1.14C12.64 3.06 12.16 5.46 12.16 8.58V33.06H14.08C22 33.06 25.12 29.46 27.712 23.46H28.192L26.8 34.5ZM43.57 34.5H30.13V34.26C31.57 32.34 32.05 29.94 32.05 26.82V8.58C32.05 5.46 31.57 3.06 30.13 1.14V0.899998H43.57V1.14C42.13 3.06 41.65 5.46 41.65 8.58V26.82C41.65 29.94 42.13 32.34 43.57 34.26V34.5ZM64.5648 35.22C55.5888 35.22 47.9088 28.98 47.9088 18.18C47.9088 7.62 56.0688 0.179998 66.3888 0.179998C70.9968 0.179998 75.2208 1.428 77.1888 2.34V12.66H76.7088C74.5488 7.14 70.4688 1.62 64.9488 1.62C60.3888 1.62 56.3088 5.46 56.3088 13.86C56.3088 22.02 61.5888 28.26 69.0768 28.26C72.6288 28.26 76.2288 26.82 78.3888 22.5H78.8688C77.9088 29.94 72.3888 35.22 64.5648 35.22ZM95.6481 34.5H82.2081V34.26C83.6481 32.34 84.1281 29.94 84.1281 26.82V8.58C84.1281 5.46 83.6481 3.06 82.2081 1.14V0.899998H95.6481V1.14C94.2081 3.06 93.7281 5.46 93.7281 8.58V26.82C93.7281 29.94 94.2081 32.34 95.6481 34.26V34.5ZM106.227 34.5H97.8269V34.26C99.8909 32.196 101.571 29.892 102.723 26.916L112.947 0.899998H119.427L129.507 26.58C130.707 29.7 131.907 31.86 134.067 34.26V34.5H118.467V34.26C119.907 32.34 120.483 29.652 119.187 26.58L117.987 23.7H105.747L104.787 26.004C103.347 29.46 104.547 32.34 106.227 34.26V34.5ZM111.843 7.764L106.227 22.26H117.507L111.843 7.764Z" fill="black" fill-opacity="0.8"/>
</svg>
