<svg width="128" height="128" viewBox="0 0 128 128" fill="none" xmlns="http://www.w3.org/2000/svg">
<path d="M117.595 0.370084L37.6025 23.994C35.9787 24.5041 34.5599 25.5188 33.5524 26.8906C32.5448 28.2624 32.001 29.9198 32 31.6219V96.9782C29.3804 96.3423 26.6957 96.0134 24 95.9981C10.75 95.9981 0 103.164 0 111.999C0 120.835 10.75 128 24 128C37.25 128 48 120.835 48 111.999V53.5757L112 34.8246V80.9798C109.381 80.3417 106.696 80.0119 104 79.9972C90.75 79.9972 80 87.1626 80 95.9981C80 104.834 90.75 111.999 104 111.999C117.25 111.999 128 104.836 128 95.9981V7.99303C127.999 6.73706 127.702 5.499 127.134 4.37907C126.565 3.25913 125.741 2.28877 124.728 1.54653C123.715 0.804295 122.541 0.311022 121.302 0.10664C120.063 -0.0977425 118.793 -0.0074931 117.595 0.370084Z" fill="#61CCFF"/>
</svg>
